<svg width="75" height="50" viewBox="0 0 75 50" fill="none" xmlns="http://www.w3.org/2000/svg">
<g id="Tab 1">
<rect id="Rectangle" width="75" height="50" fill="#FAFAFA" fill-opacity="0.01"/>
<g id="Icon">
<path id="Shape" fill-rule="evenodd" clip-rule="evenodd" d="M47.7 20.7073L37.7 10.9058C37.3111 10.5247 36.6889 10.5247 36.3 10.9058L26.3 20.7073C26.1081 20.8954 26 21.1527 26 21.4214V33.5013L26.008 33.5912C26.0504 33.8245 26.2545 34.0013 26.5 34.0013L34.5 34.001C34.7761 34.001 35 33.7771 35 33.501V28.0013L35.0051 27.8251C35.0963 26.2503 35.4023 25.0013 37 25.0013L37.1763 25.0064C38.6344 25.0909 38.9558 26.2168 38.9955 27.6515L39 28.0013V33.501C39 33.7771 39.2239 34.001 39.5 34.001L47.5 34.0013L47.5899 33.9933C47.8231 33.9509 48 33.7468 48 33.5013V21.4214C48 21.1527 47.8919 20.8954 47.7 20.7073ZM27.5 21.6315L37 12.3201L46.5 21.6315V32.5013L40.5 32.5011V28.0013L40.4953 27.632C40.4284 25.2019 39.5423 23.641 37.263 23.5089L37.0433 23.502C34.5514 23.5013 33.6619 25.0759 33.5076 27.7383L33.5006 27.958L33.5001 32.5011L27.5 32.5013V21.6315Z" fill="#F9F9F9"/>
</g>
</g>
</svg>
